<?xml version="1.0" encoding="utf-8"?>
<!-- Generator: Adobe Illustrator 22.1.0, SVG Export Plug-In . SVG Version: 6.00 Build 0)  -->
<svg version="1.1" id="Calque_1" xmlns="http://www.w3.org/2000/svg" xmlns:xlink="http://www.w3.org/1999/xlink" x="0px" y="0px"
	 viewBox="0 0 841.9 595.3" style="enable-background:new 0 0 841.9 595.3;" xml:space="preserve">
<style type="text/css">
	.st0{fill:#C2A049;}
	.st1{fill:#C19F49;}
</style>
<g>
	<path class="st0" d="M411,522.1c-2.9-0.8-5.9-0.6-8.8-0.8c-28.2-2.1-54.4-10.7-78.9-24.7c-27.9-15.9-52.1-36.2-73-60.5
		c-0.5-0.6-1.2-1.1-1.4-2.2c5,4.6,9.8,9.2,14.7,13.6c9.1,8.1,17.7,16.8,27.8,23.8c22.9,15.8,47.9,26.6,75.3,31.5
		c14.2,2.5,28.1,1.3,41.4-4.6c4.9-2.2,9.3-5.2,12.6-9.5c0.5-0.7,0.9-1.2,1.7-0.2c6.8,8.5,16.3,11.9,26.5,14
		c14.7,3.1,29.1,0.9,43.3-3.2c22.6-6.4,43.8-16.1,62.6-30.2c10.7-8,20.3-17.5,30.2-26.5c3.1-2.8,6.1-5.7,9.4-8.2
		c-2.4,2.8-4.8,5.6-7.3,8.3c-18.8,20.4-39.9,37.8-63.7,52c-25.5,15.1-52.8,24.5-82.5,26.7c-2.9,0.2-5.9,0-8.8,0.8
		C425,522.1,418,522.1,411,522.1z"/>
</g>
<path class="st1" d="M592.5,366.7c0.5-14.8,4.8-28.8,9.9-43.2c-5.8,3.2-11.3,5.5-17.1,7.3c-13.9,4.2-27.2,3.5-39.9-4
	c-7.6-4.5-13.8-10.5-19.3-17.3c-8.8-11.1-15-23.6-20.2-36.7c-25.9-65.2-51.9-130.3-77.8-195.5c-2.1-5.3-4.2-10.5-6.5-16.3
	c-0.5,1.1-0.8,1.8-1.1,2.4c-23.3,58.6-46.6,117.2-70,175.7c-6.4,16-12.1,32.2-19.6,47.7c-6.2,12.9-14,24.7-25,34
	c-9.9,8.3-21.2,13.1-34.4,12.4c-7.4-0.4-14.4-2.4-21.2-5.2c-3.1-1.3-6.1-2.8-9.5-4.3c5,14.1,9.3,28.1,9.8,42.9
	c0.5,14.9-3.6,29-8.7,43.1c8.5-5.2,21.9-4.3,29.9,3c5.9,5.3,12,10.4,18.1,15.4c14,11.2,28.7,21.4,44.9,29.3
	c18.3,8.8,37.5,14.7,57.5,18.4c4.3,0.8,8.6,1.6,12.9,1.8c-4.4-1.8-8.8-3.5-13.1-5.2c-4.4-1.8-8.7-3.7-13-5.6c-4.4-2-8.7-4-13-6.3
	c-4.2-2.2-8.3-4.6-12.3-7c-4-2.3-7.9-4.9-11.3-8c11,1.8,21.7,0.6,32.1-2.7c36.6-11.5,67.1-32.1,91-62.3c0.3-0.4,0.4-1.1,1.2-0.7
	c0,3.1-0.2,6.2-0.6,9.3c-1.4,11.1-4.4,21.8-7.2,32.5c-1.9,7.4-2.1,14.9-0.3,22.4c0.3,1.4,0.4,3.4,1.8,3.6c1.3,0.2,1.9-1.8,2.6-2.9
	c5.2-8.8,9.2-18,12.2-27.7c0.8-2.7,1.8-5.3,3.2-7.8c2.5-4.3,6.1-7.4,10.8-9.4c-1.4-0.7-2.6-1.2-3.7-1.9c-5.6-3.6-8.3-11.4-6.4-18.4
	c1.2-4.2,2.6-8.2,7-10.4c1.5-0.8,2.9-2,4.1-3.2c4.9-5.1,11.2-6.1,17.8-6.5c1-0.1,1.5,0.2,1.9,1.2c5,13.4,10,26.8,11.7,41.2
	c1.1,9.6,0.1,18.8-5,27.4c-4.4,7.3-10.5,12.8-17.2,17.7c-13.4,9.8-28.3,17-43.5,23.5c-5.9,2.5-11.8,4.7-17.8,7.1
	c8.5-0.8,16.9-2.3,25.2-4.3c23.3-5.6,45.5-14.2,65.7-27.4c14.3-9.3,27.7-19.7,40.3-31.2c7.2-6.5,15.3-9.5,24.9-7.8
	c2.5,0.5,4.8,1.6,7.3,2.9C596.1,395.6,592.1,381.5,592.5,366.7z M421.2,134.9c0.2,0,0.4,0,0.6,0c24.4,62.7,48.8,125.3,73.5,188.6
	c-49.2-21.2-98.1-24.7-146.9-0.6c-0.1-0.2-0.2-0.3-0.3-0.5C372.5,259.9,396.9,197.4,421.2,134.9z M440.5,386.4
	c-13.8,14.8-28.8,28-47.1,37.2C381,429.8,368,433.8,354,434c-7.3,0.1-14.1-1.7-19.4-7.2c-4.5-4.6-6.1-10.3-5-16.6
	c1-5.3,4.4-8.6,9.4-10.8c-0.2,1.1-0.3,1.9-0.4,2.7c-0.1,3.3,2.2,6.8,5.2,7.8c3.7,1.3,8.7-0.1,10.6-2.8c5.1-7.5,0.3-18.2-8.7-19.3
	c-7.2-0.9-14.1,0.6-20.5,4.1c-0.7,0.4-1.2,0.9-2.2,1c0.8-4.9,2.3-9.6,3.8-14.3c1.6-4.9,3.4-9.8,5.1-14.7c0.5-1.4,0.9-2,2.5-1.2
	c21.8,9.8,44.8,15.5,68.4,18.9c12.9,1.9,25.9,2.6,38.9,1.2c0.3,0,0.6,0,1.3,0.1C442.2,384.2,441.4,385.4,440.5,386.4z M473.3,361.7
	c-10,5-20.6,7.9-31.7,8.9c-29.9,2.8-58.5-2.6-86.3-13.2c-0.8-0.3-1.6-0.5-2.2-1.2c0.8-0.8,1.8-0.8,2.7-1c15.6-4.2,31.3-8.4,47-12.7
	c3-0.8,3-0.8,2.7,2.2c-1.2,12,10.4,20.7,21.4,16.1c6.7-2.8,10.7-10.7,9-17.9c-0.3-1.5-0.5-2,1.4-1.6c13.9,2.4,27.1,7,40,12.6
	c1.5,0.7,3,1.3,4.9,2.1C479.3,358.7,476.3,360.2,473.3,361.7z M502.1,347c-9.7-0.9-19-3.6-28.1-6.9c-9.6-3.5-19.1-7.3-29-9.6
	c-12.9-3-26-2.8-39-1.2c-22.4,2.8-43.9,9.1-65.1,16.8c-0.6,0.2-1.2,0.4-2.4,0.8c1-2.6,1.9-4.8,2.7-6.9c0.3-0.8,0.9-1.2,1.6-1.5
	c16.6-7.7,33.4-14.4,51.5-17.5c16.3-2.8,32.6-2.8,48.9-1c19.3,2.1,37.5,7.9,54.6,16.9c2.4,1.3,4.3,2.8,4.9,5.5
	c0.2,0.8,0.5,1.6,0.9,2.3C504.8,346.9,504,347.2,502.1,347z"/>
</svg>
